<svg width="32" height="32" viewBox="0 0 32 32" fill="none" xmlns="http://www.w3.org/2000/svg">
<path d="M32 16.0006C32 24.0816 26.0099 30.7623 18.2282 31.8464C17.5006 31.9473 16.7562 32 16.0006 32C15.1283 32 14.2718 31.9305 13.4377 31.796C5.81859 30.5695 0 23.9638 0 16.0006C0 7.16393 7.16393 0 15.9994 0C24.835 0 32 7.16393 32 16.0006Z" fill="#1877F2"/>
<path d="M18.2281 12.8472V16.3327H22.5399L21.8571 21.028H18.2281V31.8456C17.5005 31.9465 16.756 31.9992 16.0004 31.9992C15.1282 31.9992 14.2716 31.9297 13.4375 31.7952V21.028H9.46094V16.3327H13.4375V12.068C13.4375 9.42218 15.5822 7.27637 18.2292 7.27637V7.27861C18.237 7.27861 18.2438 7.27637 18.2516 7.27637H22.541V11.337H19.7382C18.9052 11.337 18.2292 12.0131 18.2292 12.8461L18.2281 12.8472Z" fill="white"/>
</svg>
