<svg width="32" height="32" viewBox="0 0 32 32" fill="none" xmlns="http://www.w3.org/2000/svg">
<path d="M16.0364 0H15.9636C7.14713 0 0 7.14713 0 15.9636V16.0364C0 24.8529 7.14713 32 15.9636 32H16.0364C24.8529 32 32 24.8529 32 16.0364V15.9636C32 7.14713 24.8529 0 16.0364 0Z" fill="url(#paint0_linear_212_559)"/>
<path d="M20.9515 6.51074H11.0498C8.31428 6.51074 6.08887 8.73616 6.08887 11.4717V20.5303C6.08887 23.2658 8.31428 25.4912 11.0498 25.4912H20.9515C23.687 25.4912 25.9124 23.2658 25.9124 20.5303V11.4717C25.9124 8.73616 23.687 6.51074 20.9515 6.51074ZM7.83893 11.4717C7.83893 9.70144 9.27956 8.2608 11.0498 8.2608H20.9515C22.7217 8.2608 24.1624 9.70144 24.1624 11.4717V20.5303C24.1624 22.3005 22.7217 23.7412 20.9515 23.7412H11.0498C9.27956 23.7412 7.83893 22.3005 7.83893 20.5303V11.4717Z" fill="white"/>
<path d="M16.0003 20.6148C18.5441 20.6148 20.6148 18.5452 20.6148 16.0003C20.6148 13.4553 18.5452 11.3857 16.0003 11.3857C13.4553 11.3857 11.3857 13.4553 11.3857 16.0003C11.3857 18.5452 13.4553 20.6148 16.0003 20.6148ZM16.0003 13.1369C17.5799 13.1369 18.8647 14.4217 18.8647 16.0014C18.8647 17.581 17.5799 18.8658 16.0003 18.8658C14.4206 18.8658 13.1358 17.581 13.1358 16.0014C13.1358 14.4217 14.4206 13.1369 16.0003 13.1369Z" fill="white"/>
<path d="M21.0418 12.1312C21.7266 12.1312 22.2847 11.574 22.2847 10.8878C22.2847 10.2017 21.7277 9.64453 21.0418 9.64453C20.3559 9.64453 19.7988 10.2017 19.7988 10.8878C19.7988 11.574 20.3559 12.1312 21.0418 12.1312Z" fill="white"/>
<defs>
<linearGradient id="paint0_linear_212_559" x1="4.67505" y1="27.3249" x2="27.3249" y2="4.67617" gradientUnits="userSpaceOnUse">
<stop stop-color="#FAAD4F"/>
<stop offset="0.35" stop-color="#DD2A7B"/>
<stop offset="0.62" stop-color="#9537B0"/>
<stop offset="1" stop-color="#515BD4"/>
</linearGradient>
</defs>
</svg>
