<svg width="57" height="57" viewBox="0 0 57 57" fill="none" xmlns="http://www.w3.org/2000/svg">
<path d="M14.052 7.32138C14.7487 4.44843 18.8347 4.44843 19.5313 7.32138L21.4482 15.2265C21.6969 16.2522 22.4978 17.0531 23.5235 17.3018L31.4286 19.2187C34.3016 19.9153 34.3016 24.0013 31.4286 24.698L23.5235 26.6148C22.4978 26.8636 21.6969 27.6644 21.4482 28.6902L19.5313 36.5953C18.8347 39.4682 14.7487 39.4682 14.052 36.5953L12.1351 28.6902C11.8864 27.6644 11.0856 26.8636 10.0598 26.6149L2.15472 24.698C-0.718237 24.0013 -0.718239 19.9153 2.15471 19.2187L10.0598 17.3018C11.0856 17.0531 11.8864 16.2522 12.1351 15.2265L14.052 7.32138Z" fill="white"/>
<path d="M37.0641 34.9093C37.4928 33.1413 40.0072 33.1413 40.4359 34.9093L41.6155 39.774C41.7686 40.4052 42.2615 40.8981 42.8927 41.0511L47.7574 42.2307C49.5253 42.6594 49.5253 45.1739 47.7574 45.6026L42.8927 46.7822C42.2615 46.9353 41.7686 47.4281 41.6155 48.0593L40.4359 52.924C40.0072 54.692 37.4928 54.692 37.0641 52.924L35.8845 48.0593C35.7314 47.4281 35.2385 46.9353 34.6073 46.7822L29.7426 45.6026C27.9747 45.1739 27.9747 42.6594 29.7426 42.2307L34.6073 41.0511C35.2385 40.8981 35.7314 40.4052 35.8844 39.774L37.0641 34.9093Z" fill="white"/>
<path d="M45.3936 7.00559C45.6749 5.84536 47.3251 5.84536 47.6064 7.00559L48.3805 10.198C48.481 10.6123 48.8044 10.9357 49.2186 11.0361L52.4111 11.8103C53.5713 12.0916 53.5713 13.7417 52.4111 14.0231L49.2186 14.7972C48.8044 14.8976 48.481 15.2211 48.3805 15.6353L47.6064 18.8277C47.3251 19.988 45.6749 19.988 45.3936 18.8277L44.6195 15.6353C44.519 15.2211 44.1956 14.8976 43.7814 14.7972L40.5889 14.0231C39.4287 13.7417 39.4287 12.0916 40.5889 11.8103L43.7814 11.0362C44.1956 10.9357 44.519 10.6123 44.6195 10.198L45.3936 7.00559Z" fill="white"/>
<path fill-rule="evenodd" clip-rule="evenodd" d="M46.5 7.57199L45.8682 10.1776C45.6156 11.2191 44.8024 12.0323 43.7609 12.2848L41.1553 12.9167L43.7609 13.5485C44.8024 13.801 45.6156 14.6142 45.8682 15.6557L46.5 18.2613L47.1318 15.6557C47.3844 14.6142 48.1976 13.801 49.2391 13.5485L51.8447 12.9167L49.2391 12.2848C48.1976 12.0323 47.3844 11.2191 47.1318 10.1776L46.5 7.57199ZM47.7645 6.16115C47.4429 4.83517 45.5571 4.83517 45.2355 6.16115L44.3508 9.80966C44.236 10.2831 43.8664 10.6527 43.393 10.7675L39.7445 11.6522C38.4185 11.9737 38.4185 13.8596 39.7445 14.1811L43.393 15.0658C43.8664 15.1806 44.236 15.5503 44.3508 16.0237L45.2355 19.6722C45.5571 20.9982 47.4429 20.9982 47.7645 19.6722L48.6492 16.0237C48.764 15.5503 49.1336 15.1806 49.607 15.0658L53.2555 14.1811C54.5815 13.8596 54.5815 11.9737 53.2555 11.6522L49.607 10.7675C49.1336 10.6527 48.764 10.2831 48.6492 9.80966L47.7645 6.16115Z" fill="white"/>
<path d="M15.5 56.8333C14.0733 56.8333 12.9167 55.6767 12.9167 54.25C12.9167 52.8233 14.0733 51.6667 15.5 51.6667C16.9267 51.6667 18.0833 52.8233 18.0833 54.25C18.0833 55.6767 16.9267 56.8333 15.5 56.8333Z" fill="white"/>
<path d="M2.58333 46.5C1.1566 46.5 -6.23646e-08 45.3434 0 43.9167C6.23646e-08 42.4899 1.1566 41.3333 2.58333 41.3333C4.01007 41.3333 5.16667 42.4899 5.16667 43.9167C5.16667 45.3434 4.01007 46.5 2.58333 46.5Z" fill="white"/>
<path d="M31 5.16667C29.5733 5.16667 28.4167 4.01007 28.4167 2.58333C28.4167 1.1566 29.5733 -6.23646e-08 31 0C32.4267 6.23646e-08 33.5833 1.1566 33.5833 2.58333C33.5833 4.01007 32.4267 5.16667 31 5.16667Z" fill="white"/>
<path d="M54.25 33.5833C52.8233 33.5833 51.6667 32.4267 51.6667 31C51.6667 29.5733 52.8233 28.4167 54.25 28.4167C55.6767 28.4167 56.8333 29.5733 56.8333 31C56.8333 32.4267 55.6767 33.5833 54.25 33.5833Z" fill="white"/>
</svg>
