<svg width="32" height="32" viewBox="0 0 32 32" fill="none" xmlns="http://www.w3.org/2000/svg">
<path d="M32 16C32 7.16344 24.8366 0 16 0C7.16345 0 0 7.16344 0 16C0 24.8366 7.16345 32 16 32C24.8366 32 32 24.8366 32 16Z" fill="#FF0209"/>
<path d="M22.7921 23.0866C22.3154 23.1383 21.8274 23.1473 21.3597 23.1461C17.7113 23.1428 14.0629 23.1394 10.4157 23.1371C9.26777 23.1371 8.01755 23.1 7.13047 22.3704C6.13096 21.5463 5.92297 20.1173 5.84202 18.8243C5.72959 17.0524 5.72059 15.2749 5.81279 13.5018C5.86338 12.5282 5.9522 11.5309 6.37156 10.6495C6.67288 10.0165 7.17544 9.44759 7.81855 9.14853C8.56621 8.80112 9.34873 8.86295 10.1537 8.86183C12.0808 8.85958 14.0079 8.85846 15.9349 8.85621C17.9384 8.85396 19.9431 8.85283 21.9466 8.85059C22.8933 8.85059 23.9096 8.8697 24.682 9.41724C25.6793 10.1233 25.9502 11.4668 26.075 12.6822C26.3055 14.9207 26.3089 17.1828 26.084 19.4213C25.9907 20.3444 25.8356 21.3203 25.2273 22.0207C24.6247 22.7155 23.7309 22.9831 22.7932 23.0854L22.7921 23.0866Z" fill="white"/>
<path d="M19.2633 16.0004L13.8262 12.8613V19.1395L19.2633 16.0004Z" fill="#FF0209"/>
</svg>
