<svg width="28" height="30" viewBox="0 0 28 30" fill="none" xmlns="http://www.w3.org/2000/svg">
<path d="M20.1664 9.95032H7.64931C7.07323 9.95032 6.60622 10.4006 6.60622 10.956C6.60622 11.5114 7.07323 11.9616 7.64931 11.9616H20.1664C20.7424 11.9616 21.2095 11.5114 21.2095 10.956C21.2095 10.4006 20.7424 9.95032 20.1664 9.95032Z" fill="#4B4B4B"/>
<path fill-rule="evenodd" clip-rule="evenodd" d="M20.7088 3.79567H20.8618C24.7023 3.79567 27.8157 6.79734 27.8157 10.5001V22.568C27.8157 26.2707 24.7023 29.2724 20.8618 29.2724H6.95392C5.10962 29.2724 3.34087 28.5661 2.03676 27.3087C0.732643 26.0514 0 24.3461 0 22.568V10.5001C0 6.79734 3.11338 3.79567 6.95392 3.79567H7.07909V1.35527C7.07909 0.799859 7.5461 0.349609 8.12218 0.349609C8.69826 0.349609 9.16526 0.799859 9.16526 1.35527V3.79567H18.6226V1.35527C18.6226 0.799859 19.0896 0.349609 19.6657 0.349609C20.2418 0.349609 20.7088 0.799859 20.7088 1.35527V3.79567ZM20.8618 27.2611C23.5501 27.2611 25.7295 25.1599 25.7295 22.568V10.5001C25.7295 7.90816 23.5501 5.80699 20.8618 5.80699H6.95392C4.26554 5.80699 2.08618 7.90816 2.08618 10.5001V22.568C2.08618 25.1599 4.26554 27.2611 6.95392 27.2611H20.8618Z" fill="#4B4B4B"/>
</svg>
