<svg width="20" height="20" viewBox="0 0 20 20" fill="none" xmlns="http://www.w3.org/2000/svg">
<path d="M14.9515 0.510376H5.0498C2.31428 0.510376 0.0888672 2.73579 0.0888672 5.47131V14.5299C0.0888672 17.2654 2.31428 19.4909 5.0498 19.4909H14.9515C17.687 19.4909 19.9124 17.2654 19.9124 14.5299V5.47131C19.9124 2.73579 17.687 0.510376 14.9515 0.510376ZM1.83893 5.47131C1.83893 3.70107 3.27956 2.26044 5.0498 2.26044H14.9515C16.7217 2.26044 18.1624 3.70107 18.1624 5.47131V14.5299C18.1624 16.3002 16.7217 17.7408 14.9515 17.7408H5.0498C3.27956 17.7408 1.83893 16.3002 1.83893 14.5299V5.47131Z" fill="white"/>
<path d="M10.0003 14.6139C12.5441 14.6139 14.6148 12.5443 14.6148 9.9994C14.6148 7.45447 12.5452 5.38489 10.0003 5.38489C7.45533 5.38489 5.38574 7.45447 5.38574 9.9994C5.38574 12.5443 7.45533 14.6139 10.0003 14.6139ZM10.0003 7.13607C11.5799 7.13607 12.8647 8.42087 12.8647 10.0005C12.8647 11.5802 11.5799 12.865 10.0003 12.865C8.42061 12.865 7.13581 11.5802 7.13581 10.0005C7.13581 8.42087 8.42061 7.13607 10.0003 7.13607Z" fill="white"/>
<path d="M15.0418 6.13055C15.7266 6.13055 16.2847 5.57336 16.2847 4.88724C16.2847 4.20112 15.7277 3.64392 15.0418 3.64392C14.3559 3.64392 13.7988 4.20112 13.7988 4.88724C13.7988 5.57336 14.3559 6.13055 15.0418 6.13055Z" fill="white"/>
</svg>
