<svg width="22" height="22" viewBox="0 0 22 22" fill="none" xmlns="http://www.w3.org/2000/svg">
<path d="M10.9996 21.2145C16.6408 21.2145 21.2139 16.6414 21.2139 11.0002C21.2139 5.35898 16.6408 0.785889 10.9996 0.785889C5.35837 0.785889 0.785278 5.35898 0.785278 11.0002C0.785278 16.6414 5.35837 21.2145 10.9996 21.2145Z" stroke="white" stroke-width="1.57143" stroke-linecap="round" stroke-linejoin="round"/>
<path d="M1.57098 14.9289H4.32098C5.05033 14.9289 5.7498 14.6391 6.26553 14.1234C6.78125 13.6077 7.07098 12.9082 7.07098 12.1789V9.82171C7.07098 9.09237 7.36072 8.39289 7.87644 7.87717C8.39217 7.36144 9.09164 7.07171 9.82098 7.07171C10.5503 7.07171 11.2498 6.78198 11.7655 6.26625C12.2813 5.75053 12.571 5.05106 12.571 4.32171V0.895996" stroke="white" stroke-width="1.57143" stroke-linecap="round" stroke-linejoin="round"/>
<path d="M21.2138 10.8429C20.4271 10.4347 19.5545 10.2192 18.6681 10.2144H15.321C14.5916 10.2144 13.8922 10.5041 13.3764 11.0198C12.8607 11.5355 12.571 12.235 12.571 12.9644C12.571 13.6937 12.8607 14.3932 13.3764 14.9089C13.8922 15.4246 14.5916 15.7144 15.321 15.7144C15.8419 15.7144 16.3416 15.9213 16.7099 16.2897C17.0783 16.6581 17.2853 17.1577 17.2853 17.6786V19.0458" stroke="white" stroke-width="1.57143" stroke-linecap="round" stroke-linejoin="round"/>
</svg>
