<svg width="70" height="70" viewBox="0 0 70 70" fill="none" xmlns="http://www.w3.org/2000/svg">
<path d="M17.2663 8.99607C18.1223 5.46596 23.1429 5.46596 23.9989 8.99606L26.3542 18.7094C26.6598 19.9697 27.6439 20.9538 28.9042 21.2594L38.6176 23.6148C42.1477 24.4708 42.1477 29.4914 38.6176 30.3474L28.9042 32.7027C27.6439 33.0083 26.6598 33.9924 26.3542 35.2527L23.9989 44.9661C23.1429 48.4962 18.1223 48.4962 17.2663 44.9661L14.9109 35.2527C14.6053 33.9924 13.6213 33.0083 12.3609 32.7027L2.64758 30.3474C-0.882526 29.4914 -0.882528 24.4708 2.64758 23.6148L12.3609 21.2594C13.6213 20.9538 14.6053 19.9697 14.9109 18.7094L17.2663 8.99607Z" fill="#69B56D"/>
<path d="M45.5421 42.8944C46.0688 40.7221 49.1584 40.7221 49.6852 42.8944L51.1346 48.8719C51.3227 49.6475 51.9283 50.253 52.7039 50.4411L58.6813 51.8905C60.8537 52.4173 60.8537 55.5069 58.6813 56.0337L52.7039 57.4831C51.9283 57.6712 51.3227 58.2768 51.1346 59.0524L49.6852 65.0298C49.1584 67.2022 46.0688 67.2022 45.5421 65.0298L44.0926 59.0524C43.9045 58.2768 43.299 57.6712 42.5234 57.4831L36.5459 56.0337C34.3736 55.5069 34.3736 52.4173 36.5459 51.8905L42.5234 50.4411C43.299 50.253 43.9045 49.6475 44.0926 48.8719L45.5421 42.8944Z" fill="#69B56D"/>
<path d="M55.7769 8.60804C56.1226 7.18242 58.1501 7.18242 58.4958 8.60804L59.447 12.5307C59.5704 13.0397 59.9679 13.4371 60.4768 13.5605L64.3995 14.5117C65.8251 14.8574 65.8251 16.885 64.3995 17.2307L60.4768 18.1819C59.9679 18.3053 59.5704 18.7027 59.447 19.2117L58.4958 23.1344C58.1501 24.56 56.1226 24.56 55.7769 23.1344L54.8257 19.2117C54.7023 18.7027 54.3049 18.3053 53.7959 18.1819L49.8732 17.2307C48.4476 16.885 48.4476 14.8574 49.8732 14.5117L53.7959 13.5605C54.3049 13.4371 54.7023 13.0397 54.8257 12.5307L55.7769 8.60804Z" fill="#69B56D"/>
<path fill-rule="evenodd" clip-rule="evenodd" d="M57.1364 9.304L56.36 12.5056C56.0497 13.7854 55.0505 14.7845 53.7708 15.0949L50.5691 15.8712L53.7708 16.6476C55.0505 16.9579 56.0497 17.9571 56.36 19.2368L57.1364 22.4384L57.9127 19.2368C58.223 17.9571 59.2222 16.9579 60.502 16.6476L63.7036 15.8712L60.502 15.0949C59.2222 14.7845 58.223 13.7854 57.9127 12.5056L57.1364 9.304ZM58.69 7.57044C58.295 5.94116 55.9778 5.94117 55.5827 7.57045L54.4956 12.0535C54.3545 12.6352 53.9004 13.0894 53.3187 13.2305L48.8356 14.3175C47.2063 14.7126 47.2063 17.0298 48.8356 17.4249L53.3187 18.512C53.9004 18.653 54.3545 19.1072 54.4956 19.6889L55.5827 24.172C55.9778 25.8013 58.295 25.8013 58.69 24.172L59.7771 19.6889C59.9182 19.1072 60.3724 18.653 60.9541 18.512L65.4371 17.4249C67.0664 17.0298 67.0664 14.7126 65.4371 14.3175L60.9541 13.2305C60.3724 13.0894 59.9182 12.6352 59.7771 12.0535L58.69 7.57044Z" fill="#69B56D"/>
<path d="M19.0455 69.8333C17.2924 69.8333 15.8712 68.4122 15.8712 66.6591C15.8712 64.906 17.2924 63.4848 19.0455 63.4848C20.7985 63.4848 22.2197 64.906 22.2197 66.6591C22.2197 68.4122 20.7985 69.8333 19.0455 69.8333Z" fill="#69B56D"/>
<path d="M3.17424 57.1364C1.42116 57.1364 -7.66298e-08 55.7152 0 53.9621C7.66298e-08 52.209 1.42116 50.7879 3.17424 50.7879C4.92733 50.7879 6.34848 52.209 6.34848 53.9621C6.34848 55.7152 4.92733 57.1364 3.17424 57.1364Z" fill="#69B56D"/>
<path d="M38.0909 6.34848C36.3378 6.34848 34.9167 4.92733 34.9167 3.17424C34.9167 1.42116 36.3378 -7.66298e-08 38.0909 0C39.844 7.66298e-08 41.2651 1.42116 41.2651 3.17424C41.2651 4.92733 39.844 6.34848 38.0909 6.34848Z" fill="#69B56D"/>
<path d="M66.6591 41.2651C64.906 41.2651 63.4848 39.844 63.4848 38.0909C63.4848 36.3378 64.906 34.9167 66.6591 34.9167C68.4122 34.9167 69.8333 36.3378 69.8333 38.0909C69.8333 39.844 68.4122 41.2651 66.6591 41.2651Z" fill="#69B56D"/>
</svg>
