<svg width="32" height="32" viewBox="0 0 32 32" fill="none" xmlns="http://www.w3.org/2000/svg">
<path d="M31.9978 16.0006C31.9978 24.0816 26.0078 30.7623 18.2265 31.8464C17.4989 31.9473 16.7545 32 15.9989 32C15.1267 32 14.2702 31.9305 13.4361 31.796C5.81838 30.5695 0 23.9638 0 16.0006C0 7.16393 7.16368 0 16 0C24.8363 0 32 7.16393 32 16.0006H31.9978Z" fill="#1C1C1B"/>
<path d="M6.48933 7.05664L13.8682 16.9225L6.44336 24.944H8.11489L14.616 17.9214L19.8683 24.944H25.5555L17.7617 14.5233L24.6732 7.05664H23.0017L17.0151 13.5244L12.1777 7.05664H6.49044H6.48933ZM8.94672 8.28763H11.5588L23.0958 23.7131H20.4837L8.94672 8.28763Z" fill="white"/>
</svg>
