<svg width="22" height="16" viewBox="0 0 22 16" fill="none" xmlns="http://www.w3.org/2000/svg">
<path d="M17.7921 15.0864C17.3154 15.1381 16.8274 15.1471 16.3597 15.146C12.7113 15.1426 9.06294 15.1393 5.41569 15.137C4.26777 15.137 3.01755 15.0999 2.13047 14.3702C1.13096 13.5461 0.92297 12.1171 0.84202 10.8242C0.72959 9.05228 0.720594 7.27475 0.812787 5.50172C0.863381 4.52807 0.952198 3.53081 1.37156 2.64935C1.67288 2.01637 2.17544 1.44747 2.81855 1.14841C3.56621 0.800995 4.34873 0.862832 5.15373 0.861708C7.08079 0.859459 9.00786 0.858334 10.9349 0.856086C12.9384 0.853837 14.9431 0.852712 16.9466 0.850464C17.8933 0.850464 18.9096 0.869577 19.682 1.41711C20.6793 2.12318 20.9502 3.46672 21.075 4.6821C21.3055 6.92059 21.3089 9.1827 21.084 11.4212C20.9907 12.3442 20.8356 13.3201 20.2273 14.0206C19.6247 14.7154 18.7309 14.983 17.7932 15.0853L17.7921 15.0864Z" fill="white"/>
<path d="M14.2633 8.00002L8.82617 4.86096V11.1391L14.2633 8.00002Z" fill="#FF0209"/>
</svg>
